<svg xmlns="http://www.w3.org/2000/svg" viewBox="0 0 900 560" role="img" aria-labelledby="title desc">
  <title id="title">Box truck</title>
  <desc id="desc">A commercial box truck with an enclosed cargo body.</desc>
  <rect width="900" height="560" fill="#edf3f7"/>
  <rect y="390" width="900" height="170" fill="#b8c2ca"/>
  <rect x="275" y="175" width="365" height="180" rx="10" fill="#ffffff" stroke="#7b8b99" stroke-width="8"/>
  <rect x="150" y="235" width="165" height="120" rx="15" fill="#0f6aa6"/>
  <path d="M150 355h190l-30-88c-7-20-26-34-47-34H150z" fill="#0f6aa6"/>
  <path d="M185 250h65c19 0 35 12 41 30l12 39H185z" fill="#d9edf8"/>
  <rect x="140" y="340" width="530" height="34" fill="#234966"/>
  <circle cx="230" cy="386" r="43" fill="#1a2630"/>
  <circle cx="230" cy="386" r="20" fill="#dfe7ed"/>
  <circle cx="565" cy="386" r="43" fill="#1a2630"/>
  <circle cx="565" cy="386" r="20" fill="#dfe7ed"/>
  <path d="M320 210h280M320 252h280M320 294h280" stroke="#d7e0e7" stroke-width="8"/>
  <text x="450" y="82" text-anchor="middle" font-family="Arial, Helvetica, sans-serif" font-size="42" font-weight="700" fill="#102033">Box Truck</text>
</svg>
