<svg xmlns="http://www.w3.org/2000/svg" viewBox="0 0 900 560" role="img" aria-labelledby="title desc">
  <title id="title">Hotshot truck and trailer</title>
  <desc id="desc">A pickup truck pulling a gooseneck flatbed trailer for hotshot freight.</desc>
  <rect width="900" height="560" fill="#eff4f7"/>
  <rect y="390" width="900" height="170" fill="#b8c2ca"/>
  <rect x="120" y="270" width="235" height="82" rx="18" fill="#0f6aa6"/>
  <path d="M165 270h100l35 45h55v37H120v-37h27z" fill="#0f6aa6"/>
  <path d="M180 282h75l27 34H180z" fill="#d9edf8"/>
  <rect x="360" y="303" width="400" height="28" rx="4" fill="#3d4b55"/>
  <rect x="470" y="235" width="110" height="68" fill="#c9892c"/>
  <rect x="600" y="255" width="90" height="48" fill="#d4a447"/>
  <path d="M355 320h50" stroke="#3d4b55" stroke-width="12"/>
  <rect x="105" y="340" width="670" height="34" fill="#234966"/>
  <circle cx="190" cy="386" r="42" fill="#1a2630"/>
  <circle cx="190" cy="386" r="20" fill="#dfe7ed"/>
  <circle cx="315" cy="386" r="42" fill="#1a2630"/>
  <circle cx="315" cy="386" r="20" fill="#dfe7ed"/>
  <circle cx="610" cy="386" r="42" fill="#1a2630"/>
  <circle cx="610" cy="386" r="20" fill="#dfe7ed"/>
  <circle cx="710" cy="386" r="42" fill="#1a2630"/>
  <circle cx="710" cy="386" r="20" fill="#dfe7ed"/>
  <text x="450" y="82" text-anchor="middle" font-family="Arial, Helvetica, sans-serif" font-size="42" font-weight="700" fill="#102033">Hotshot</text>
</svg>
