<svg xmlns="http://www.w3.org/2000/svg" viewBox="0 0 900 560" role="img" aria-labelledby="title desc">
  <title id="title">Power only semi tractor</title>
  <desc id="desc">A semi tractor without a trailer for power only freight.</desc>
  <rect width="900" height="560" fill="#eef5f6"/>
  <rect y="390" width="900" height="170" fill="#b8c2ca"/>
  <rect x="255" y="205" width="220" height="150" rx="18" fill="#0f6aa6"/>
  <path d="M255 355h250l-36-104c-8-24-30-40-55-40H255z" fill="#0f6aa6"/>
  <path d="M300 225h92c24 0 44 15 51 38l15 49H300z" fill="#d9edf8"/>
  <rect x="475" y="300" width="150" height="55" rx="8" fill="#234966"/>
  <rect x="580" y="264" width="95" height="22" rx="8" fill="#334652"/>
  <rect x="230" y="340" width="460" height="35" fill="#234966"/>
  <circle cx="325" cy="388" r="45" fill="#1a2630"/>
  <circle cx="325" cy="388" r="21" fill="#dfe7ed"/>
  <circle cx="555" cy="388" r="45" fill="#1a2630"/>
  <circle cx="555" cy="388" r="21" fill="#dfe7ed"/>
  <circle cx="650" cy="388" r="45" fill="#1a2630"/>
  <circle cx="650" cy="388" r="21" fill="#dfe7ed"/>
  <path d="M615 265h45l-12 35h-58z" fill="#1f7a61"/>
  <text x="450" y="82" text-anchor="middle" font-family="Arial, Helvetica, sans-serif" font-size="42" font-weight="700" fill="#102033">Power Only</text>
</svg>
