<svg xmlns="http://www.w3.org/2000/svg" viewBox="0 0 900 560" role="img" aria-labelledby="title desc">
  <title id="title">Sprinter van</title>
  <desc id="desc">A high-roof commercial sprinter cargo van.</desc>
  <rect width="900" height="560" fill="#eef5f8"/>
  <rect y="390" width="900" height="170" fill="#b8c2ca"/>
  <path d="M175 340v-92c0-48 39-87 87-87h255c67 0 121 54 121 121v58z" fill="#ffffff" stroke="#7b8b99" stroke-width="8"/>
  <path d="M270 190h108v105H225v-48c0-31 14-57 45-57z" fill="#d9edf8"/>
  <path d="M405 190h110c39 0 72 24 87 58l20 47H405z" fill="#d9edf8"/>
  <rect x="170" y="332" width="495" height="42" fill="#234966"/>
  <rect x="215" y="305" width="60" height="8" fill="#f4a51c"/>
  <rect x="430" y="305" width="140" height="8" fill="#f4a51c"/>
  <circle cx="270" cy="386" r="43" fill="#1a2630"/>
  <circle cx="270" cy="386" r="20" fill="#dfe7ed"/>
  <circle cx="555" cy="386" r="43" fill="#1a2630"/>
  <circle cx="555" cy="386" r="20" fill="#dfe7ed"/>
  <text x="450" y="82" text-anchor="middle" font-family="Arial, Helvetica, sans-serif" font-size="42" font-weight="700" fill="#102033">Sprinter Van</text>
</svg>
