<svg xmlns="http://www.w3.org/2000/svg" viewBox="0 0 900 560" role="img" aria-labelledby="title desc">
  <title id="title">Step deck trailer truck</title>
  <desc id="desc">A semi tractor pulling a drop deck trailer with a higher front deck and lower rear deck.</desc>
  <rect width="900" height="560" fill="#eef4f8"/>
  <rect y="390" width="900" height="170" fill="#b8c2ca"/>
  <path d="M300 244h150v35h310v34H300z" fill="#3d4b55"/>
  <rect x="500" y="176" width="150" height="100" fill="#c9892c"/>
  <rect x="672" y="205" width="80" height="72" fill="#d4a447"/>
  <rect x="115" y="224" width="170" height="126" rx="16" fill="#234966"/>
  <path d="M115 350h187l-29-96c-7-22-26-37-49-37H115z" fill="#234966"/>
  <path d="M150 238h67c19 0 34 12 40 30l13 42H150z" fill="#d9edf8"/>
  <rect x="106" y="335" width="672" height="34" fill="#234966"/>
  <circle cx="188" cy="382" r="42" fill="#1a2630"/>
  <circle cx="188" cy="382" r="20" fill="#dfe7ed"/>
  <circle cx="578" cy="382" r="42" fill="#1a2630"/>
  <circle cx="578" cy="382" r="20" fill="#dfe7ed"/>
  <circle cx="692" cy="382" r="42" fill="#1a2630"/>
  <circle cx="692" cy="382" r="20" fill="#dfe7ed"/>
  <text x="450" y="82" text-anchor="middle" font-family="Arial, Helvetica, sans-serif" font-size="42" font-weight="700" fill="#102033">Step Deck</text>
</svg>
